<?xml version="1.0" encoding="UTF-8"?>
<svg version="1.1" xmlns="http://www.w3.org/2000/svg" width="500" height="500">
<path d="M0 0 C3.87850945 2.67801843 6.13291589 5.33624767 7.625 9.8125 C7.70739169 11.65860532 7.73243359 13.50755164 7.72265625 15.35546875 C7.71782227 16.96518555 7.71782227 16.96518555 7.71289062 18.60742188 C7.70032227 20.28674805 7.70032227 20.28674805 7.6875 22 C7.68298828 23.13115234 7.67847656 24.26230469 7.67382812 25.42773438 C7.66203498 28.22270927 7.6455765 31.0175782 7.625 33.8125 C8.71385498 33.7810791 8.71385498 33.7810791 9.82470703 33.74902344 C13.13299555 33.6655635 16.44106211 33.61374461 19.75 33.5625 C20.89210938 33.52898437 22.03421875 33.49546875 23.2109375 33.4609375 C29.6867812 33.38563699 33.71522359 33.41866619 38.625 37.8125 C39.49125 38.43125 39.49125 38.43125 40.375 39.0625 C43.29928316 43.15649643 43.89143712 48.10859598 43.4375 53 C42.31271608 58.27783225 41.1371156 60.66842367 36.81640625 63.9375 C31.46718259 66.90283051 25.62828148 66.23812287 19.6875 66.0625 C18.52669922 66.04445313 17.36589844 66.02640625 16.16992188 66.0078125 C13.32075253 65.96091259 10.47331469 65.89529059 7.625 65.8125 C7.78613281 66.85664063 7.94726562 67.90078125 8.11328125 68.9765625 C9.31590208 77.99162854 9.58804746 87.57018527 5 95.6875 C0.87016552 99.38261506 -3.44106471 100.57075809 -8.875 101.25 C-13.24751287 100.70343589 -16.93799944 99.64005304 -20.375 96.8125 C-25.16213227 90.62035702 -24.85994865 84.98823994 -24.625 77.375 C-24.60695312 76.26189453 -24.58890625 75.14878906 -24.5703125 74.00195312 C-24.52343319 71.27123354 -24.45782819 68.54232614 -24.375 65.8125 C-25.35726562 65.8439209 -25.35726562 65.8439209 -26.359375 65.87597656 C-29.36442328 65.95980383 -32.36922464 66.01136895 -35.375 66.0625 C-36.40496094 66.09601563 -37.43492188 66.12953125 -38.49609375 66.1640625 C-45.02129241 66.24718605 -49.96013645 65.63653718 -55.375 61.8125 C-59.15508107 58.03241893 -59.65401132 54.91673098 -59.8125 49.75 C-59.806619 45.18045956 -59.05278679 42.53449552 -56.375 38.8125 C-51.90347643 34.88628419 -49.61480691 33.68502623 -43.7109375 33.71484375 C-42.58945313 33.71806641 -41.46796875 33.72128906 -40.3125 33.72460938 C-39.136875 33.73298828 -37.96125 33.74136719 -36.75 33.75 C-35.56664063 33.75451172 -34.38328125 33.75902344 -33.1640625 33.76367188 C-30.23432493 33.77548533 -27.30468728 33.79195742 -24.375 33.8125 C-24.39594727 33.12212646 -24.41689453 32.43175293 -24.43847656 31.72045898 C-24.52211095 28.56379007 -24.57380953 25.40735498 -24.625 22.25 C-24.67527344 20.62094727 -24.67527344 20.62094727 -24.7265625 18.95898438 C-24.80747621 12.30383156 -24.38611815 8.20267171 -20.375 2.8125 C-14.70500628 -2.34203975 -6.98916422 -2.45915038 0 0 Z " fill="#567CFE" transform="translate(136.375,200.1875)"/>
<path d="M0 0 C3.87850945 2.67801843 6.13291589 5.33624767 7.625 9.8125 C7.70739169 11.65860532 7.73243359 13.50755164 7.72265625 15.35546875 C7.71943359 16.42861328 7.71621094 17.50175781 7.71289062 18.60742188 C7.70032227 20.28674805 7.70032227 20.28674805 7.6875 22 C7.68298828 23.13115234 7.67847656 24.26230469 7.67382812 25.42773438 C7.66203498 28.22270927 7.6455765 31.0175782 7.625 33.8125 C8.71385498 33.7810791 8.71385498 33.7810791 9.82470703 33.74902344 C13.13299555 33.6655635 16.44106211 33.61374461 19.75 33.5625 C20.89210937 33.52898437 22.03421875 33.49546875 23.2109375 33.4609375 C29.6867812 33.38563699 33.71522359 33.41866619 38.625 37.8125 C39.49125 38.43125 39.49125 38.43125 40.375 39.0625 C43.29928316 43.15649643 43.89143712 48.10859598 43.4375 53 C42.30913918 58.29461615 41.14065428 60.68200512 36.78125 63.93359375 C31.57628644 66.81686076 26.04030681 66.28028236 20.25 66.125 C19.14527344 66.11533203 18.04054687 66.10566406 16.90234375 66.09570312 C8.79350242 65.98100242 8.79350242 65.98100242 7.625 64.8125 C7.24255021 61.35151877 6.90503907 57.89362727 6.63867188 54.421875 C6.02815645 48.2194705 4.50160445 43.31829215 -0.375 39.0703125 C-1.035 38.69648438 -1.695 38.32265625 -2.375 37.9375 C-3.035 37.54820312 -3.695 37.15890625 -4.375 36.7578125 C-9.51953937 34.32621381 -14.97349953 34.44262684 -20.57421875 34.09375 C-23.375 33.8125 -23.375 33.8125 -24.375 32.8125 C-24.68480669 29.11276712 -24.65355706 25.39859493 -24.6875 21.6875 C-24.71650391 20.65367187 -24.74550781 19.61984375 -24.77539062 18.5546875 C-24.82935779 12.04541655 -24.25434826 8.09990799 -20.375 2.8125 C-14.70500628 -2.34203975 -6.98916422 -2.45915038 0 0 Z " fill="#66DAFE" transform="translate(136.375,200.1875)"/>
<path d="M0 0 C4.97328103 2.9424494 4.97328103 2.9424494 6.20703125 6.05078125 C6.40234375 8.0234375 6.40234375 8.0234375 4.77734375 10.3359375 C2.40234375 12.0234375 2.40234375 12.0234375 -0.16015625 11.8984375 C-2.59765625 11.0234375 -2.59765625 11.0234375 -5.59765625 9.0234375 C-9.99950623 8.45282732 -11.89602833 8.51587688 -15.53515625 11.1484375 C-17.95571036 14.52254323 -18.20244377 15.96272127 -17.59765625 20.0234375 C-16.74639961 22.57720742 -16.02944425 23.68760239 -13.91015625 25.3359375 C-10.5212946 26.34343691 -8.01223837 25.81610835 -4.59765625 25.0234375 C-2.21737334 23.59668577 -2.21737334 23.59668577 -0.59765625 22.0234375 C1.87034422 23.17517105 3.4501794 24.07127315 5.40234375 26.0234375 C5.85609375 25.2396875 6.30984375 24.4559375 6.77734375 23.6484375 C8.40234375 21.0234375 8.40234375 21.0234375 10.40234375 19.0234375 C9.88671875 18.6109375 9.37109375 18.1984375 8.83984375 17.7734375 C7.40234375 16.0234375 7.40234375 16.0234375 7.40234375 14.0234375 C8.90194558 11.02423384 10.30331398 10.3146999 13.40234375 9.0234375 C17.72477581 8.44398103 21.28013693 8.56977942 25.33984375 10.2109375 C28.26022314 12.77733151 29.2664904 15.21212997 29.55932617 19.11645508 C29.5989198 21.52611826 29.57678779 23.92649121 29.52734375 26.3359375 C29.51832031 27.17189453 29.50929688 28.00785156 29.5 28.86914062 C29.47655364 30.92069719 29.44068641 32.97210527 29.40234375 35.0234375 C28.76167969 35.01183594 28.12101562 35.00023437 27.4609375 34.98828125 C23.3670495 34.94557303 19.63511437 34.98146247 15.58984375 35.7109375 C11.74078898 36.08829581 10.38440777 35.40908872 7.40234375 33.0234375 C6.74234375 32.0334375 6.08234375 31.0434375 5.40234375 30.0234375 C4.86609375 30.6421875 4.32984375 31.2609375 3.77734375 31.8984375 C-0.56674453 35.78525333 -5.47786345 36.54646524 -11.15625 36.40234375 C-16.3444066 35.59714185 -21.43773273 33.29704121 -25.08203125 29.4609375 C-28.90446187 23.92118298 -29.13641206 18.51900287 -28.59765625 12.0234375 C-26.81749886 6.5782502 -23.20939525 3.24117357 -18.59765625 0.0234375 C-12.79123692 -1.91203561 -5.76762477 -2.16827999 0 0 Z M15.40234375 17.0234375 C15.07234375 17.6834375 14.74234375 18.3434375 14.40234375 19.0234375 C15.72234375 18.3634375 17.04234375 17.7034375 18.40234375 17.0234375 C17.41234375 17.0234375 16.42234375 17.0234375 15.40234375 17.0234375 Z M15.40234375 26.0234375 C15.40234375 26.6834375 15.40234375 27.3434375 15.40234375 28.0234375 C16.72234375 27.6934375 18.04234375 27.3634375 19.40234375 27.0234375 C19.40234375 26.3634375 19.40234375 25.7034375 19.40234375 25.0234375 C17.32780815 24.8743663 17.32780815 24.8743663 15.40234375 26.0234375 Z " fill="#251EFE" transform="translate(326.59765625,230.9765625)"/>
<path d="M0 0 C7.55245022 -0.37143198 7.55245022 -0.37143198 9.52734375 1.26757812 C11.13400932 3.15764757 11.81337918 4.67065402 12.60546875 7.01171875 C12.86650391 7.76904297 13.12753906 8.52636719 13.39648438 9.30664062 C13.65751953 10.09232422 13.91855469 10.87800781 14.1875 11.6875 C14.46013672 12.48478516 14.73277344 13.28207031 15.01367188 14.10351562 C15.68362192 16.06635172 16.34286146 18.03283769 17 20 C19.79308415 13.37608502 22.53267983 6.75266574 25 0 C31.444938 0 37.60776433 0.03513424 44 1 C44.625 3.8125 44.625 3.8125 45 7 C44.34 7.99 43.68 8.98 43 10 C43.495 10.495 43.495 10.495 44 11 C44.08737645 12.85369611 44.10698153 14.71067541 44.09765625 16.56640625 C44.09443359 17.69111328 44.09121094 18.81582031 44.08789062 19.97460938 C44.07532227 21.75061523 44.07532227 21.75061523 44.0625 23.5625 C44.05798828 24.75037109 44.05347656 25.93824219 44.04882812 27.16210938 C44.03699675 30.10812226 44.02051287 33.05403681 44 36 C37.84765625 36.09765625 37.84765625 36.09765625 36 36 C34.32472462 34.32472462 34.86994423 32.27213078 34.8671875 29.9765625 C34.86525391 28.44515625 34.86525391 28.44515625 34.86328125 26.8828125 C34.86714844 25.80773437 34.87101562 24.73265625 34.875 23.625 C34.86919922 22.02398437 34.86919922 22.02398437 34.86328125 20.390625 C34.86457031 19.36710937 34.86585938 18.34359375 34.8671875 17.2890625 C34.86831543 16.34756348 34.86944336 15.40606445 34.87060547 14.43603516 C35 12 35 12 36 9 C35.34 8.01 34.68 7.02 34 6 C30.37 15.9 26.74 25.8 23 36 C19.37 36 15.74 36 12 36 C8.6172849 27.40185961 5.24663183 18.7990143 2.0625 10.125 C1.66160156 9.03445312 1.26070312 7.94390625 0.84765625 6.8203125 C0 4 0 4 0 0 Z " fill="#241DFE" transform="translate(187,230)"/>
<path d="M0 0 C2.64 0 5.28 0 8 0 C8 2.31 8 4.62 8 7 C9.65 7 11.3 7 13 7 C13 9.64 13 12.28 13 15 C11.35 15 9.7 15 8 15 C8.33 17.64 8.66 20.28 9 23 C10.65 23.33 12.3 23.66 14 24 C14.268125 23.236875 14.53625 22.47375 14.8125 21.6875 C15.94424112 19.12619116 16.91223401 17.80307062 19 16 C18.01 15.34 17.02 14.68 16 14 C16.32116971 11.02918021 16.52591275 9.44745314 18.73828125 7.359375 C22.63201359 5.01910064 26.60202648 5.35848036 31 6 C35.14740799 8.33291699 36.61975339 10.53091957 38 15 C38.16275028 17.79158104 38.2350862 20.46495509 38.1875 23.25 C38.18685547 23.9821875 38.18621094 24.714375 38.18554688 25.46875 C38.140625 30.859375 38.140625 30.859375 37 32 C35.62580976 32.0471825 34.24949468 32.03727443 32.875 32 C29.80933838 31.9465574 27.36468006 32.11844948 24.3125 32.6875 C20.30349638 33.06570789 18.38828858 32.06602962 15 30 C14.67 30.66 14.34 31.32 14 32 C7.12569522 33.4894327 7.12569522 33.4894327 3.125 31.75 C1 30 1 30 -1 27 C-1.1953125 24.08203125 -1.1953125 24.08203125 -1.125 20.8125 C-1.10695312 19.72582031 -1.08890625 18.63914063 -1.0703125 17.51953125 C-1.04710937 16.68808594 -1.02390625 15.85664063 -1 15 C-2.32 15 -3.64 15 -5 15 C-5 12.36 -5 9.72 -5 7 C-3.68 6.67 -2.36 6.34 -1 6 C-0.67 4.02 -0.34 2.04 0 0 Z M24 14 C23.34 14.66 22.68 15.32 22 16 C23.65 15.67 25.3 15.34 27 15 C26.01 14.67 25.02 14.34 24 14 Z M24 23 C24 23.66 24 24.32 24 25 C25.32 24.67 26.64 24.34 28 24 C28 23.34 28 22.68 28 22 C25.9254644 21.8509288 25.9254644 21.8509288 24 23 Z " fill="#251EFE" transform="translate(237,234)"/>
<path d="M0 0 C5.33333333 0 10.66666667 0 16 0 C16.33 1.98 16.66 3.96 17 6 C17.78375 5.195625 18.5675 4.39125 19.375 3.5625 C22.53823036 0.47458465 23.96761637 -0.17412366 28.25 -0.3125 C32.89750989 -0.25272495 35.4517073 0.8741231 39 4 C41.4740207 7.0512922 41.97401107 8.74444218 42.375 12.6875 C42.189375 14.3271875 42.189375 14.3271875 42 16 C41.01 16.66 40.02 17.32 39 18 C39.495 20.475 39.495 20.475 40 23 C36.81198516 26.18801484 33.64438404 26.72050915 29.3125 27.0625 C24.47411091 26.93173273 21.17416365 24.99352309 17.5625 21.9375 C15.29114006 17.66734331 15.66868497 13.73964558 16 9 C14.02 9.66 12.04 10.32 10 11 C9.67 15.95 9.34 20.9 9 26 C6.03 26 3.06 26 0 26 C0 17.42 0 8.84 0 0 Z M27 8 C26.67 8.66 26.34 9.32 26 10 C27.65 10 29.3 10 31 10 C30.67 9.34 30.34 8.68 30 8 C29.01 8 28.02 8 27 8 Z M27 17 C27 17.33 27 17.66 27 18 C28.98 18 30.96 18 33 18 C33 17.67 33 17.34 33 17 C31.02 17 29.04 17 27 17 Z " fill="#241DFE" transform="translate(359,240)"/>
<path d="M0 0 C17.44397608 -1.08148646 17.44397608 -1.08148646 24.23828125 4.00390625 C29.4213579 9.87652746 30.58945416 14.31936536 30.25 21.9375 C30.22292969 23.10635742 30.22292969 23.10635742 30.1953125 24.29882812 C30.14866383 26.19976131 30.07693829 28.10005169 30 30 C13.21950791 30.91641037 13.21950791 30.91641037 7.4765625 26.42578125 C2.74218129 21.85422267 0.14984727 17.89205231 -0.1953125 11.23046875 C-0.18216327 9.88267285 -0.1585249 8.53494305 -0.125 7.1875 C-0.11597656 6.49462891 -0.10695313 5.80175781 -0.09765625 5.08789062 C-0.07426157 3.39177605 -0.03839641 1.69584129 0 0 Z " fill="#2721FF" transform="translate(113,235)"/>
<path d="M0 0 C2.64 0 5.28 0 8 0 C9 1 9 1 9.11352539 4.32641602 C9.11336629 5.80225556 9.10767314 7.27810069 9.09765625 8.75390625 C9.0962413 9.52935287 9.09482635 10.3047995 9.09336853 11.10374451 C9.08775345 13.59003494 9.07519846 16.0762366 9.0625 18.5625 C9.05748694 20.24413933 9.0529237 21.92578006 9.04882812 23.60742188 C9.03777913 27.73831566 9.02050445 31.86914276 9 36 C6.03 36 3.06 36 0 36 C0 24.12 0 12.24 0 0 Z " fill="#211AFE" transform="translate(278,230)"/>
<path d="M0 0 C7.55245022 -0.37143198 7.55245022 -0.37143198 9.52734375 1.26757812 C11.13400932 3.15764757 11.81337918 4.67065402 12.60546875 7.01171875 C12.86650391 7.76904297 13.12753906 8.52636719 13.39648438 9.30664062 C13.65751953 10.09232422 13.91855469 10.87800781 14.1875 11.6875 C14.46013672 12.48478516 14.73277344 13.28207031 15.01367188 14.10351562 C15.68362192 16.06635172 16.34286146 18.03283769 17 20 C19.79308415 13.37608502 22.53267983 6.75266574 25 0 C26.43655854 -0.08131463 27.8744483 -0.13933559 29.3125 -0.1875 C30.51326172 -0.23970703 30.51326172 -0.23970703 31.73828125 -0.29296875 C34 0 34 0 35.79296875 1.26171875 C37 3 37 3 37 7 C36.01 6.67 35.02 6.34 34 6 C30.37 15.9 26.74 25.8 23 36 C19.37 36 15.74 36 12 36 C8.6172849 27.40185961 5.24663183 18.7990143 2.0625 10.125 C1.66160156 9.03445312 1.26070312 7.94390625 0.84765625 6.8203125 C0 4 0 4 0 0 Z M1 2 C4.82619029 13.0705766 8.68682606 24.10774507 13 35 C15.64 35 18.28 35 21 35 C24.16006049 27.70419214 27.05022737 20.32912055 29.8125 12.875 C30.12646729 12.03348389 30.44043457 11.19196777 30.76391602 10.32495117 C31.05451904 9.53451416 31.34512207 8.74407715 31.64453125 7.9296875 C31.90596924 7.22054199 32.16740723 6.51139648 32.43676758 5.78076172 C33.100521 3.99346969 33.100521 3.99346969 33 2 C30.69 2 28.38 2 26 2 C25.6443396 2.93851807 25.6443396 2.93851807 25.28149414 3.89599609 C24.2095788 6.72274269 23.13605953 9.54887746 22.0625 12.375 C21.68931641 13.35984375 21.31613281 14.3446875 20.93164062 15.359375 C20.57392578 16.30039063 20.21621094 17.24140625 19.84765625 18.2109375 C19.51773682 19.08024902 19.18781738 19.94956055 18.84790039 20.84521484 C18 23 18 23 17 25 C14.36 17.41 11.72 9.82 9 2 C6.36 2 3.72 2 1 2 Z " fill="#2F30FE" transform="translate(187,230)"/>
<path d="M0 0 C-2.33885419 1.1694271 -4.65626453 2.28125623 -7.0625 3.3125 C-10.43263479 5.24853488 -11.53620672 6.42183865 -13 10 C-13.53255319 14.97049643 -13.1529475 18.05881562 -10 22 C-5.81484859 24.55759253 -1.78118825 24.60532475 3 24 C5.5189267 22.68236671 5.5189267 22.68236671 7 21 C6.01 20.01 5.02 19.02 4 18 C3.01 18.66 2.02 19.32 1 20 C-2.5625 19.875 -2.5625 19.875 -6 19 C-6.66 17.68 -7.32 16.36 -8 15 C-2.39 15 3.22 15 9 15 C9 13.02 9 11.04 9 9 C9.66 9 10.32 9 11 9 C11.1875 12.375 11.1875 12.375 11 16 C10.01 16.66 9.02 17.32 8 18 C8.33 19.65 8.66 21.3 9 23 C5.81198516 26.18801484 2.64438404 26.72050915 -1.6875 27.0625 C-6.52588909 26.93173273 -9.82583635 24.99352309 -13.4375 21.9375 C-15.70885994 17.66734331 -15.33131503 13.73964558 -15 9 C-16.98 9 -18.96 9 -21 9 C-20.360625 8.773125 -19.72125 8.54625 -19.0625 8.3125 C-16.72806339 7.14749104 -16.72806339 7.14749104 -16.25 4.375 C-16.1675 3.59125 -16.085 2.8075 -16 2 C-15.34 3.32 -14.68 4.64 -14 6 C-13.21625 5.195625 -12.4325 4.39125 -11.625 3.5625 C-7.62991839 -0.33746062 -5.49646543 -0.1017864 0 0 Z M-4 17 C-4 17.33 -4 17.66 -4 18 C-2.02 18 -0.04 18 2 18 C2 17.67 2 17.34 2 17 C0.02 17 -1.96 17 -4 17 Z " fill="#2E27FE" transform="translate(390,240)"/>
<path d="M0 0 C6.15234375 -0.09765625 6.15234375 -0.09765625 8 0 C9 1 9 1 9.11352539 4.32641602 C9.11336629 5.80225556 9.10767314 7.27810069 9.09765625 8.75390625 C9.0962413 9.52935287 9.09482635 10.3047995 9.09336853 11.10374451 C9.08775345 13.59003494 9.07519846 16.0762366 9.0625 18.5625 C9.05748694 20.24413933 9.0529237 21.92578006 9.04882812 23.60742188 C9.03777913 27.73831566 9.02050445 31.86914276 9 36 C6.69 36 4.38 36 2 36 C2 35.67 2 35.34 2 35 C3.65 35 5.3 35 7 35 C7 24.11 7 13.22 7 2 C4.69 2.33 2.38 2.66 0 3 C0 2.01 0 1.02 0 0 Z " fill="#2C25FE" transform="translate(278,230)"/>
<path d="M0 0 C0.99 0.33 1.98 0.66 3 1 C2.2575 1.474375 1.515 1.94875 0.75 2.4375 C-3.41129991 6.31507492 -5.62372858 10.92740444 -6.31933594 16.60766602 C-6.39107343 19.27055175 -6.35154781 21.90077558 -6.25 24.5625 C-6.23195313 25.47580078 -6.21390625 26.38910156 -6.1953125 27.33007812 C-6.14872701 29.55453514 -6.08335485 31.77666967 -6 34 C-6.66 33.67 -7.32 33.34 -8 33 C-8.11701204 29.31277073 -8.18752045 25.62602458 -8.25 21.9375 C-8.28351563 20.89916016 -8.31703125 19.86082031 -8.3515625 18.79101562 C-8.43466527 12.24667237 -7.90291637 8.31691195 -4 3 C-1.9375 1 -1.9375 1 0 0 Z " fill="#5FD1FE" transform="translate(120,200)"/>
<path d="M0 0 C-2.60951236 1.30475618 -4.52701285 1.11301572 -7.4453125 1.09765625 C-9.05986328 1.09282227 -9.05986328 1.09282227 -10.70703125 1.08789062 C-11.83496094 1.07951172 -12.96289062 1.07113281 -14.125 1.0625 C-15.26066406 1.05798828 -16.39632812 1.05347656 -17.56640625 1.04882812 C-20.37765638 1.03701615 -23.1888023 1.02054507 -26 1 C-26.33 0.34 -26.66 -0.32 -27 -1 C-23.25085209 -1.22616462 -19.50077551 -1.42782662 -15.75 -1.625 C-14.68652344 -1.68945312 -13.62304688 -1.75390625 -12.52734375 -1.8203125 C-11.50253906 -1.871875 -10.47773438 -1.9234375 -9.421875 -1.9765625 C-8.47924805 -2.02893066 -7.53662109 -2.08129883 -6.56542969 -2.13525391 C-3.85052215 -1.99211927 -2.30740658 -1.3910908 0 0 Z " fill="#59CFFE" transform="translate(171,265)"/>
<path d="M0 0 C-0.875 4.875 -0.875 4.875 -2 6 C-3.66617115 6.04063832 -5.33388095 6.042721 -7 6 C-7.33 4.68 -7.66 3.36 -8 2 C-2.25 0 -2.25 0 0 0 Z M-6 3 C-6 3.66 -6 4.32 -6 5 C-4.68 4.67 -3.36 4.34 -2 4 C-2 3.34 -2 2.68 -2 2 C-4.0745356 1.8509288 -4.0745356 1.8509288 -6 3 Z " fill="#2D26FE" transform="translate(348,254)"/>
<path d="M0 0 C2.4375 0.8125 2.4375 0.8125 5 2 C5.33 2.99 5.66 3.98 6 5 C2.37 5 -1.26 5 -5 5 C-3.35 3.35 -1.7 1.7 0 0 Z M-1 2 C-1.33 2.66 -1.66 3.32 -2 4 C-0.35 4 1.3 4 3 4 C2.67 3.34 2.34 2.68 2 2 C1.01 2 0.02 2 -1 2 Z " fill="#2D26FE" transform="translate(387,246)"/>
<path d="M0 0 C-0.875 4.875 -0.875 4.875 -2 6 C-3.66617115 6.04063832 -5.33388095 6.042721 -7 6 C-7.33 4.68 -7.66 3.36 -8 2 C-7.01 2 -6.02 2 -5 2 C-5.33 2.99 -5.66 3.98 -6 5 C-4.68 4.67 -3.36 4.34 -2 4 C-2 3.34 -2 2.68 -2 2 C-2.66 1.67 -3.32 1.34 -4 1 C-2 0 -2 0 0 0 Z " fill="#2D26FE" transform="translate(267,254)"/>
</svg>
